<?xml version="1.0" encoding="utf-8"?>
<!-- Generator: Adobe Illustrator 19.1.0, SVG Export Plug-In . SVG Version: 6.00 Build 0)  -->
<svg version="1.1" id="Layer_1" xmlns="http://www.w3.org/2000/svg" xmlns:xlink="http://www.w3.org/1999/xlink" x="0px" y="0px"
	 viewBox="38 315.2 687.3 162.8" style="enable-background:new 38 315.2 687.3 162.8;" xml:space="preserve">
<style type="text/css">
	.st0{fill:none;}
	.st1{fill:#FFFFFF;}
	.st2{fill:#00AADA;}
	.st3{clip-path:url(#SVGID_2_);fill:#24B8EB;}
	.st4{fill:#008BB8;}
	.st5{clip-path:url(#SVGID_4_);fill:#039BC6;}
	.st6{clip-path:url(#SVGID_6_);fill:#00ACD3;}
	.st7{clip-path:url(#SVGID_8_);fill:#00ACD3;}
	.st8{clip-path:url(#SVGID_10_);fill:#20C2EF;}
	.st9{clip-path:url(#SVGID_12_);fill:#00ACD3;}
	.st10{clip-path:url(#SVGID_14_);fill:#20C2EF;}
	.st11{clip-path:url(#SVGID_16_);fill:#20C2EF;}
	.st12{clip-path:url(#SVGID_18_);fill:#00ACD3;}
	.st13{clip-path:url(#SVGID_20_);fill:#20C2EF;}
	.st14{clip-path:url(#SVGID_22_);fill:#00ACD3;}
	.st15{clip-path:url(#SVGID_24_);fill:#D4EDF1;}
	.st16{clip-path:url(#SVGID_26_);fill:#394D54;}
	.st17{clip-path:url(#SVGID_28_);fill:#BFDBE0;}
	.st18{clip-path:url(#SVGID_30_);fill:#D4EDF1;}
</style>
<rect x="-18.2" y="259" class="st0" width="800" height="275"/>
<path class="st1" d="M204.6,366.8h25.6v26h12.9c6,0,12.1-1.1,17.8-3c2.8-0.9,5.9-2.2,8.6-3.9c-3.6-4.7-5.5-10.6-6-16.4
	c-0.7-7.9,0.9-18.2,6.3-24.4l2.7-3.1l3.2,2.6c8.1,6.4,14.9,15.4,16.1,25.7c9.7-2.8,21.1-2.2,29.7,2.7l3.5,2l-1.9,3.6
	c-7.2,14-22.4,18.4-37.2,17.6c-22.2,54.7-70.4,80.7-128.9,80.7c-30.2,0-58-11.2-73.7-37.8l-0.3-0.4l-2.3-4.6
	c-5.3-11.7-7.1-24.5-5.9-37.3l0.4-3.8h21.9v-26h25.6v-25.4h51.2V316h30.7L204.6,366.8L204.6,366.8z"/>
<rect x="-18.2" y="259" class="st0" width="800" height="275"/>
<path class="st2" d="M287.6,376.4c1.7-13.2-8.3-23.6-14.5-28.6c-7.1,8.2-8.2,29.6,2.9,38.6c-6.2,5.5-19.4,10.5-32.9,10.5H79.1
	c-1.3,13.9,1.2,26.8,6.8,37.8l1.9,3.4c1.2,2,2.5,3.9,3.9,5.8c6.7,0.4,13,0.6,18.6,0.5h0c11.2-0.2,20.3-1.6,27.2-3.9
	c1-0.4,2.1,0.2,2.5,1.2c0.4,1-0.2,2.1-1.2,2.5c-0.9,0.3-1.9,0.6-2.9,0.9h0c-5.4,1.5-11.3,2.6-18.8,3c0.4,0-0.5,0.1-0.5,0.1
	c-0.3,0-0.6,0.1-0.8,0.1c-3,0.2-6.2,0.2-9.4,0.2c-3.6,0-7.1-0.1-11-0.3l-0.1,0.1c13.7,15.2,35,24.4,61.8,24.4
	c56.7,0,104.8-24.9,126.1-80.9c15.1,1.5,29.6-2.3,36.2-15.1C308.9,370.6,295.4,372.5,287.6,376.4"/>
<g>
	<defs>
		<rect id="SVGID_1_" x="-18.2" y="259" width="800" height="275"/>
	</defs>
	<clipPath id="SVGID_2_">
		<use xlink:href="#SVGID_1_"  style="overflow:visible;"/>
	</clipPath>
	<path class="st3" d="M287.6,376.4c1.7-13.2-8.3-23.6-14.5-28.6c-7.1,8.2-8.2,29.6,2.9,38.6c-6.2,5.5-19.4,10.5-32.9,10.5H88.9
		c-0.7,21.4,7.3,37.6,21.5,47.4h0c11.2-0.2,20.3-1.6,27.2-3.9c1-0.4,2.1,0.2,2.5,1.2c0.4,1-0.2,2.1-1.2,2.5
		c-0.9,0.3-1.9,0.6-2.9,0.9h0c-5.4,1.5-11.8,2.7-19.3,3.2c0,0-0.2-0.2-0.2-0.2c19.3,9.8,47.3,9.8,79.4-2.4
		c36-13.7,69.4-39.8,92.8-69.7C288.3,376,287.9,376.2,287.6,376.4"/>
</g>
<rect x="-18.2" y="259" class="st0" width="800" height="275"/>
<path class="st4" d="M79.5,413.9c1,7.5,3.2,14.5,6.5,20.8l1.9,3.4c1.2,2,2.5,3.9,3.9,5.8c6.7,0.4,13,0.6,18.7,0.5
	c11.2-0.2,20.3-1.6,27.2-3.9c1-0.4,2.1,0.2,2.5,1.2c0.4,1-0.2,2.1-1.2,2.5c-0.9,0.3-1.9,0.6-2.9,0.9h0c-5.4,1.5-11.7,2.6-19.3,3.1
	c-0.3,0-0.7,0-1,0c-3,0.2-6.1,0.3-9.4,0.3c-3.6,0-7.2-0.1-11.2-0.3c13.7,15.2,35.2,24.4,62,24.4c48.5,0,90.8-18.3,115.3-58.6
	L79.5,413.9L79.5,413.9z"/>
<g>
	<defs>
		<rect id="SVGID_3_" x="-18.2" y="259" width="800" height="275"/>
	</defs>
	<clipPath id="SVGID_4_">
		<use xlink:href="#SVGID_3_"  style="overflow:visible;"/>
	</clipPath>
	<path class="st5" d="M90.3,413.9c2.9,13.1,9.9,23.4,20,30.4c11.2-0.2,20.3-1.6,27.2-3.9c1-0.4,2.1,0.2,2.5,1.2
		c0.4,1-0.2,2.1-1.2,2.5c-0.9,0.3-1.9,0.6-2.9,0.9h0c-5.4,1.5-11.9,2.6-19.4,3.1c19.3,9.8,47.2,9.7,79.3-2.5
		c19.4-7.4,38.1-18.4,54.8-31.7L90.3,413.9L90.3,413.9z"/>
</g>
<g>
	<defs>
		<rect id="SVGID_5_" x="-18.2" y="259" width="800" height="275"/>
	</defs>
	<clipPath id="SVGID_6_">
		<use xlink:href="#SVGID_5_"  style="overflow:visible;"/>
	</clipPath>
	<path class="st6" d="M120,372.8h1.8v18.3H120V372.8z M116.6,372.8h1.8v18.3h-1.8V372.8z M113.3,372.8h1.8v18.3h-1.8V372.8z
		 M109.9,372.8h1.8v18.3h-1.8V372.8z M106.5,372.8h1.8v18.3h-1.8V372.8z M103.3,372.8h1.8v18.3h-1.8V372.8z M101.4,371h22.2v22
		h-22.2V371z"/>
</g>
<g>
	<defs>
		<rect id="SVGID_7_" x="-18.2" y="259" width="800" height="275"/>
	</defs>
	<clipPath id="SVGID_8_">
		<use xlink:href="#SVGID_7_"  style="overflow:visible;"/>
	</clipPath>
	<path class="st7" d="M145.6,347.4h1.8v18.3h-1.8V347.4z M142.2,347.4h1.8v18.3h-1.8V347.4z M138.9,347.4h1.8v18.3h-1.8V347.4z
		 M135.5,347.4h1.8v18.3h-1.8V347.4z M132.1,347.4h1.8v18.3h-1.8V347.4z M128.9,347.4h1.8v18.3h-1.8V347.4z M127,345.6h22.2v22H127
		V345.6z"/>
</g>
<g>
	<defs>
		<rect id="SVGID_9_" x="-18.2" y="259" width="800" height="275"/>
	</defs>
	<clipPath id="SVGID_10_">
		<use xlink:href="#SVGID_9_"  style="overflow:visible;"/>
	</clipPath>
	<path class="st8" d="M145.6,372.8h1.8v18.3h-1.8V372.8z M142.2,372.8h1.8v18.3h-1.8V372.8z M138.9,372.8h1.8v18.3h-1.8V372.8z
		 M135.5,372.8h1.8v18.3h-1.8V372.8z M132.1,372.8h1.8v18.3h-1.8V372.8z M128.9,372.8h1.8v18.3h-1.8V372.8z M127,371h22.2v22H127
		V371z"/>
</g>
<g>
	<defs>
		<rect id="SVGID_11_" x="-18.2" y="259" width="800" height="275"/>
	</defs>
	<clipPath id="SVGID_12_">
		<use xlink:href="#SVGID_11_"  style="overflow:visible;"/>
	</clipPath>
	<path class="st9" d="M171.2,372.8h1.8v18.3h-1.8V372.8z M167.8,372.8h1.8v18.3h-1.8V372.8z M164.5,372.8h1.8v18.3h-1.8
		C164.5,391.2,164.5,372.8,164.5,372.8z M161.1,372.8h1.8v18.3h-1.8V372.8z M157.7,372.8h1.8v18.3h-1.8V372.8z M154.4,372.8h1.8
		v18.3h-1.8V372.8z M152.6,371h22.2v22h-22.2C152.6,393,152.6,371,152.6,371z"/>
</g>
<g>
	<defs>
		<rect id="SVGID_13_" x="-18.2" y="259" width="800" height="275"/>
	</defs>
	<clipPath id="SVGID_14_">
		<use xlink:href="#SVGID_13_"  style="overflow:visible;"/>
	</clipPath>
	<path class="st10" d="M171.2,347.4h1.8v18.3h-1.8V347.4z M167.8,347.4h1.8v18.3h-1.8V347.4z M164.5,347.4h1.8v18.3h-1.8
		C164.5,365.8,164.5,347.4,164.5,347.4z M161.1,347.4h1.8v18.3h-1.8V347.4z M157.7,347.4h1.8v18.3h-1.8V347.4z M154.4,347.4h1.8
		v18.3h-1.8V347.4z M152.6,345.6h22.2v22h-22.2C152.6,367.6,152.6,345.6,152.6,345.6z"/>
</g>
<g>
	<defs>
		<rect id="SVGID_15_" x="-18.2" y="259" width="800" height="275"/>
	</defs>
	<clipPath id="SVGID_16_">
		<use xlink:href="#SVGID_15_"  style="overflow:visible;"/>
	</clipPath>
	<path class="st11" d="M196.8,372.8h1.8v18.3h-1.8V372.8z M193.4,372.8h1.8v18.3h-1.8V372.8z M190.1,372.8h1.8v18.3h-1.8V372.8z
		 M186.7,372.8h1.8v18.3h-1.8V372.8z M183.3,372.8h1.8v18.3h-1.8V372.8z M180,372.8h1.8v18.3H180V372.8z M178.2,371h22.2v22h-22.2
		V371z"/>
</g>
<g>
	<defs>
		<rect id="SVGID_17_" x="-18.2" y="259" width="800" height="275"/>
	</defs>
	<clipPath id="SVGID_18_">
		<use xlink:href="#SVGID_17_"  style="overflow:visible;"/>
	</clipPath>
	<path class="st12" d="M196.8,347.4h1.8v18.3h-1.8V347.4z M193.4,347.4h1.8v18.3h-1.8V347.4z M190.1,347.4h1.8v18.3h-1.8V347.4z
		 M186.7,347.4h1.8v18.3h-1.8V347.4z M183.3,347.4h1.8v18.3h-1.8V347.4z M180,347.4h1.8v18.3H180V347.4z M178.2,345.6h22.2v22h-22.2
		V345.6z"/>
</g>
<g>
	<defs>
		<rect id="SVGID_19_" x="-18.2" y="259" width="800" height="275"/>
	</defs>
	<clipPath id="SVGID_20_">
		<use xlink:href="#SVGID_19_"  style="overflow:visible;"/>
	</clipPath>
	<path class="st13" d="M196.8,322.1h1.8v18.3h-1.8V322.1z M193.4,322.1h1.8v18.3h-1.8V322.1z M190.1,322.1h1.8v18.3h-1.8V322.1z
		 M186.7,322.1h1.8v18.3h-1.8V322.1z M183.3,322.1h1.8v18.3h-1.8V322.1z M180,322.1h1.8v18.3H180V322.1z M178.2,320.2h22.2v22h-22.2
		V320.2z"/>
</g>
<g>
	<defs>
		<rect id="SVGID_21_" x="-18.2" y="259" width="800" height="275"/>
	</defs>
	<clipPath id="SVGID_22_">
		<use xlink:href="#SVGID_21_"  style="overflow:visible;"/>
	</clipPath>
	<path class="st14" d="M222.4,372.8h1.8v18.3h-1.8V372.8z M219,372.8h1.8v18.3H219V372.8z M215.7,372.8h1.8v18.3h-1.8V372.8z
		 M212.3,372.8h1.8v18.3h-1.8V372.8z M208.9,372.8h1.8v18.3h-1.8V372.8z M205.6,372.8h1.7v18.3h-1.7V372.8z M203.8,371H226v22h-22.2
		L203.8,371L203.8,371z"/>
</g>
<g>
	<defs>
		<rect id="SVGID_23_" x="-18.2" y="259" width="800" height="275"/>
	</defs>
	<clipPath id="SVGID_24_">
		<use xlink:href="#SVGID_23_"  style="overflow:visible;"/>
	</clipPath>
	<path class="st15" d="M147.8,428.7c3.4,0,6.1,2.7,6.1,6.1c0,3.4-2.7,6.1-6.1,6.1c-3.4,0-6.1-2.7-6.1-6.1
		C141.7,431.4,144.4,428.7,147.8,428.7"/>
</g>
<g>
	<defs>
		<rect id="SVGID_25_" x="-18.2" y="259" width="800" height="275"/>
	</defs>
	<clipPath id="SVGID_26_">
		<use xlink:href="#SVGID_25_"  style="overflow:visible;"/>
	</clipPath>
	<path class="st16" d="M147.8,430.4c0.6,0,1.1,0.1,1.6,0.3c-0.5,0.3-0.9,0.9-0.9,1.5c0,1,0.8,1.8,1.8,1.8c0.7,0,1.3-0.4,1.6-0.9
		c0.2,0.5,0.3,1.1,0.3,1.7c0,2.4-2,4.3-4.4,4.3c-2.4,0-4.4-1.9-4.4-4.3C143.4,432.3,145.4,430.4,147.8,430.4"/>
</g>
<rect x="-18.2" y="259" class="st0" width="800" height="275"/>
<path class="st1" d="M39.5,416.1h134.1h16.6h134.1c-6.2-1.6-19.6-3.7-17.4-11.7c-11.3,12.9-38.5,9.1-45.3,2.7
	c-7.6,11-52.1,6.8-55.2-1.8c-9.6,11.1-39.3,11.1-48.8,0c-3.1,8.6-47.6,12.7-55.2,1.8c-6.9,6.4-34,10.2-45.3-2.7
	C59.2,412.4,45.7,414.5,39.5,416.1"/>
<g>
	<defs>
		<rect id="SVGID_27_" x="-18.2" y="259" width="800" height="275"/>
	</defs>
	<clipPath id="SVGID_28_">
		<use xlink:href="#SVGID_27_"  style="overflow:visible;"/>
	</clipPath>
	<path class="st17" d="M164.1,472.4c-15.2-7.1-23.5-16.8-28.1-27.4c-5.6,1.6-12.4,2.6-20.3,3.1c-3,0.2-6.1,0.2-9.3,0.2
		c-3.8,0-7.7-0.1-11.9-0.3c13.9,13.8,31,24.4,62.7,24.6C159.4,472.5,161.8,472.5,164.1,472.4"/>
</g>
<g>
	<defs>
		<rect id="SVGID_29_" x="-18.2" y="259" width="800" height="275"/>
	</defs>
	<clipPath id="SVGID_30_">
		<use xlink:href="#SVGID_29_"  style="overflow:visible;"/>
	</clipPath>
	<path class="st18" d="M141.6,454.8c-2.1-2.8-4.1-6.4-5.6-9.8c-5.6,1.6-12.4,2.6-20.3,3.1C121.1,451,128.8,453.6,141.6,454.8"/>
</g>
<rect x="-18.2" y="259" class="st0" width="800" height="275"/>
<path class="st1" d="M623.4,427.8c8.8-7.4,17.5-14.9,26.3-22.4c3-2.6,6.3-5.2,9.2-7.9c-2.4-3-6.3-5.1-9.7-6.4
	c-6.8-2.6-13.5-1.7-19.8,1.9c-8.2,4.7-11.7,12.1-11.3,21.4c0.1,3.6,1.1,7.2,3.1,10.3C621.8,425.8,622.6,426.8,623.4,427.8
	 M633.5,434.8c4.3,1.5,9.2,1.3,13.6,0.5c2.3-0.9,8-3.4,10.1-3.1l0.3,0.1l0.3,0.1c1.3,0.6,2.5,1.5,3.2,2.8c1.5,3.1,0.8,6.1-2.2,7.9
	l-1,0.6c-11.2,6.4-23.1,5.5-34.3-0.5c-5.3-2.9-9.4-7.1-12.4-12.3l-0.7-1.2c-7.2-12.3-6.2-25.3,1.9-37.1c2.8-4.1,6.5-7.2,10.7-9.6
	l1.6-0.9c10.5-6,21.8-5.6,32.7-0.3c5.8,2.8,10.5,7.1,13.8,12.7l0.6,1c2.4,4.1-0.7,7.6-3.9,10c-3.7,2.8-7.4,6.2-10.9,9.2
	C649.2,421.4,641.4,428.1,633.5,434.8 M717.4,378.7h1.2c3.5,0,5.9,2.4,5.9,5.9c0,4.8-4.7,6.1-8.7,6.1c-5.3,0-10.4,3.2-14,6.7
	c-4.6,4.5-6.5,10.2-6.5,16.4v28.3c0,3.3-2,5.9-5.4,5.9h-0.9c-3.4,0-5.4-2.6-5.4-5.9v-30c0-11.5,5.6-20.9,15.1-27.5
	C704.1,380.8,710.5,378.7,717.4,378.7 M570.3,398.8c4.6-4.6,9.2-9.1,13.8-13.6c1.3-1.2,6.2-6.5,8.1-6.5h2.1l0.2,0
	c2.7,0.6,4.7,2.2,4.7,5.1v1.2c0,2-2.3,4.2-3.6,5.6c-2.7,2.9-5.6,5.6-8.3,8.4l-14.3,14.4c6.1,6.1,12.3,12.2,18.4,18.4
	c1.7,1.7,3.4,3.4,5,5.1c0.6,0.6,1.5,1.4,1.9,2.2c0.5,0.8,0.9,1.7,0.9,2.6v1.2l-0.1,0.3c-0.7,2.7-2.4,4.8-5.4,4.8H593
	c-2,0-4.2-2.2-5.5-3.4c-2.8-2.6-5.4-5.3-8.1-7.9l-9.1-8.8v14.1c0,3.2-2.1,5.9-5.4,5.9H564c-3.4,0-5.4-2.6-5.4-5.9v-79.4
	c0-3.2,2-5.8,5.4-5.8h0.9c3.4,0,5.4,2.6,5.4,5.8L570.3,398.8L570.3,398.8z M532,390.9c-1.8-0.8-5.1-1.1-7-1.2
	c-9.9-0.4-17,5.1-21.2,13.8c-1.4,3-2.1,6.1-2.1,9.4c0,10,5.3,17,14.3,21.3c3.3,1.6,7.5,1.9,11.1,1.9c3.2,0,7.6-1.9,10.5-3.2l0.5-0.2
	h2.2l0.2,0c2.7,0.6,4.7,2.2,4.7,5.1v1.2c0,7.1-13.1,8.8-18.1,9.1c-17.7,1.2-30.9-8.4-35.9-25.1c-0.9-2.9-1.3-5.8-1.3-8.8v-2.3
	c0-12.7,6.3-22.7,17.3-29.2c5.1-3,10.7-4.5,16.7-4.5h2.3c6.3,0,12.1,1.8,17.3,5.3l0.4,0.3l0.3,0.4c0.6,0.9,1,2,1,3.1v1.2
	c0,3-2.3,4.6-5,5.1l-0.2,0h-0.7C537.6,393.4,533.6,391.6,532,390.9 M424.4,413.1c0,8.9,4.4,15.4,12,20c3.6,2.2,7.5,3.1,11.6,3.1
	c8.9,0,15.4-4.5,20-11.9c2.2-3.5,3.2-7.4,3.2-11.5c0-8.3-4-14.6-10.9-19.2c-3.8-2.5-8-3.8-12.5-3.8c-9.9,0-17,5-21.3,13.8
	C425.1,406.7,424.4,409.8,424.4,413.1 M446.6,378.2h1.6c13.7,0,24.1,6.6,30.7,18.4c2.6,4.7,4,9.9,4,15.3v2.3
	c0,12.7-6.3,22.8-17.3,29.2c-5.1,3-10.8,4.5-16.7,4.5h-2.3c-12.8,0-23-6.3-29.5-17.2c-3-5.1-4.5-10.7-4.5-16.5V412
	c0-12.7,6.3-22.7,17.3-29.2C435.1,379.7,440.7,378.2,446.6,378.2 M347.2,413.1c0,9.2,4.5,16.1,12.6,20.4c3.3,1.8,6.8,2.7,10.6,2.7
	c9.1,0,15.8-4.2,20.4-11.9c2.2-3.5,3.2-7.4,3.2-11.5c0-7.9-3.8-14.1-10.2-18.7c-3.9-2.8-8.3-4.2-13.1-4.2c-9.9,0-17,5-21.3,13.8
	C347.8,406.7,347.2,409.8,347.2,413.1 M393.9,387v-24.7c0-3.2,2-5.9,5.4-5.9h0.9c3.4,0,5.4,2.6,5.4,5.9v52
	c0,12.7-6.3,22.8-17.3,29.2c-5.1,3-10.8,4.5-16.7,4.5h-2.3c-12.8,0-23-6.3-29.5-17.2c-3-5.1-4.5-10.7-4.5-16.5V412
	c0-12.7,6.3-22.8,17.3-29.2c5.1-3,10.7-4.5,16.7-4.5h2.3C380.4,378.2,387.7,381.6,393.9,387"/>
</svg>
