<?xml version="1.0" encoding="utf-8"?>
<!-- Generator: Adobe Illustrator 19.1.0, SVG Export Plug-In . SVG Version: 6.00 Build 0)  -->
<svg version="1.1" id="Layer_1" xmlns="http://www.w3.org/2000/svg" xmlns:xlink="http://www.w3.org/1999/xlink" x="0px" y="0px"
	 viewBox="0 0 132.3 67.4" style="enable-background:new 0 0 132.3 67.4;" xml:space="preserve">
<style type="text/css">
	.st0{fill:#DADADA;}
	.st1{fill:#E6332A;}
</style>
<g>
	<path class="st0" d="M2.9,67.4c-1,0-1.7-0.3-2.2-0.9C0.2,65.8,0,64.9,0,63.7v-6.5c0-1.2,0.2-2.1,0.7-2.7c0.5-0.6,1.2-0.9,2.2-0.9
		c1,0,1.7,0.3,2.2,0.9c0.5,0.6,0.7,1.5,0.7,2.7v0.3H5.2v-0.3c0-0.7-0.1-1.2-0.2-1.6c-0.1-0.4-0.3-0.7-0.6-0.9
		c-0.2-0.2-0.5-0.3-0.7-0.4c-0.3-0.1-0.5-0.1-0.8-0.1c-0.2,0-0.5,0-0.8,0.1c-0.3,0.1-0.5,0.2-0.7,0.4c-0.2,0.2-0.4,0.5-0.6,0.9
		c-0.1,0.4-0.2,0.9-0.2,1.6v6.5c0,1,0.2,1.8,0.6,2.3c0.4,0.5,0.9,0.7,1.7,0.7c0.8,0,1.3-0.2,1.7-0.7c0.4-0.5,0.6-1.3,0.6-2.3v-1.8
		h-3v-0.7h3.6v2.4c0,1.2-0.2,2.1-0.7,2.7C4.7,67.1,3.9,67.4,2.9,67.4z"/>
	<path class="st0" d="M13.2,61.1c0.6,0.6,0.9,1.4,0.9,2.4v3.8h-0.7v-3.8c0-0.8-0.2-1.5-0.7-1.9c-0.4-0.5-1.1-0.7-1.9-0.7h-0.3H9v6.4
		H8.4V53.6h2.5c1.1,0,1.9,0.3,2.4,0.9c0.5,0.6,0.8,1.5,0.8,2.8c0,1.2-0.3,2.1-0.8,2.7c-0.2,0.3-0.5,0.5-0.8,0.6
		C12.7,60.7,13,60.9,13.2,61.1z M10.9,60.3c0.9,0,1.6-0.2,1.9-0.7c0.4-0.5,0.6-1.3,0.6-2.3c0-1.1-0.2-1.8-0.6-2.3
		c-0.4-0.5-1-0.7-2-0.7H9v6h1.5H10.9z"/>
	<path class="st0" d="M19.6,67.4c-0.3,0-0.7,0-1-0.1c-0.3-0.1-0.7-0.3-0.9-0.6c-0.3-0.3-0.5-0.6-0.7-1.1c-0.2-0.5-0.3-1.1-0.3-1.8
		v-6.5c0-1.2,0.2-2.1,0.7-2.7c0.5-0.6,1.2-0.9,2.2-0.9c1,0,1.7,0.3,2.2,0.9c0.5,0.6,0.7,1.5,0.7,2.7v6.5c0,0.8-0.1,1.4-0.3,1.8
		c-0.2,0.5-0.4,0.8-0.7,1.1c-0.3,0.3-0.6,0.5-0.9,0.6C20.3,67.3,19.9,67.4,19.6,67.4z M19.6,54.3c-0.8,0-1.3,0.2-1.7,0.7
		c-0.4,0.5-0.6,1.3-0.6,2.3v6.5c0,1,0.2,1.8,0.6,2.3c0.4,0.5,0.9,0.7,1.7,0.7c0.7,0,1.3-0.2,1.7-0.7c0.4-0.5,0.6-1.2,0.6-2.3v-6.5
		c0-1-0.2-1.8-0.6-2.3C20.9,54.5,20.3,54.3,19.6,54.3z"/>
	<path class="st0" d="M37.2,53.6l-3,13.8h-0.5l-2.6-11.9l-2.6,11.9h-0.5l-3-13.8h0.7l2.7,11.9l2.6-11.9h0.5L34,65.6l2.6-11.9H37.2z"
		/>
	<path class="st0" d="M45.3,67.4V53.6h0.6v13.8H45.3z"/>
	<path class="st0" d="M49.1,67.4h-0.7V53.6H49l4.7,11.8V53.6h0.7v13.8h-0.5l-4.8-11.8V67.4z"/>
	<path class="st0" d="M69.6,54.3h-3.3v13.1h-0.6V54.3h-3.3v-0.7h7.2V54.3z"/>
	<path class="st0" d="M77.3,53.6v13.8h-0.7v-6.6h-4.2v6.6h-0.7V53.6h0.7v6.6h4.2v-6.6H77.3z"/>
	<path class="st0" d="M80.7,54.3v5.9H85v0.6h-4.3v5.9H85v0.6H80V53.6H85v0.6H80.7z"/>
	<path class="st0" d="M95.8,67.4c-0.3,0-0.7,0-1-0.1c-0.3-0.1-0.7-0.3-0.9-0.6c-0.3-0.3-0.5-0.6-0.7-1.1c-0.2-0.5-0.3-1.1-0.3-1.8
		v-6.5c0-0.7,0.1-1.4,0.3-1.8c0.2-0.5,0.4-0.8,0.7-1.1c0.3-0.3,0.6-0.4,0.9-0.5c0.3-0.1,0.7-0.1,1-0.1c0.3,0,0.7,0,1,0.1
		c0.3,0.1,0.7,0.3,0.9,0.5c0.3,0.3,0.5,0.6,0.7,1.1c0.2,0.5,0.3,1.1,0.3,1.8v0.3H98v-0.3c0-1-0.2-1.8-0.6-2.3
		c-0.4-0.5-1-0.7-1.7-0.7c-0.7,0-1.3,0.2-1.7,0.7c-0.4,0.5-0.6,1.2-0.6,2.3v6.5c0,1,0.2,1.8,0.6,2.3c0.4,0.5,0.9,0.7,1.7,0.7
		c0.7,0,1.3-0.2,1.7-0.7c0.4-0.5,0.6-1.3,0.6-2.3v-0.3h0.7v0.3c0,0.8-0.1,1.4-0.3,1.8c-0.2,0.5-0.4,0.8-0.7,1.1
		c-0.3,0.3-0.6,0.5-0.9,0.6C96.4,67.3,96.1,67.4,95.8,67.4z"/>
	<path class="st0" d="M100.9,67.4V53.6h0.7v13.1h4.6v0.6H100.9z"/>
	<path class="st0" d="M111.2,67.4c-0.3,0-0.7,0-1-0.1c-0.3-0.1-0.7-0.3-0.9-0.6c-0.3-0.3-0.5-0.6-0.7-1.1c-0.2-0.5-0.3-1.1-0.3-1.8
		v-6.5c0-1.2,0.2-2.1,0.7-2.7c0.5-0.6,1.2-0.9,2.2-0.9c1,0,1.7,0.3,2.2,0.9c0.5,0.6,0.7,1.5,0.7,2.7v6.5c0,0.8-0.1,1.4-0.3,1.8
		c-0.2,0.5-0.4,0.8-0.7,1.1c-0.3,0.3-0.6,0.5-0.9,0.6C111.9,67.3,111.5,67.4,111.2,67.4z M111.2,54.3c-0.8,0-1.3,0.2-1.7,0.7
		c-0.4,0.5-0.6,1.3-0.6,2.3v6.5c0,1,0.2,1.8,0.6,2.3c0.4,0.5,0.9,0.7,1.7,0.7c0.7,0,1.3-0.2,1.7-0.7c0.4-0.5,0.6-1.2,0.6-2.3v-6.5
		c0-1-0.2-1.8-0.6-2.3C112.5,54.5,111.9,54.3,111.2,54.3z"/>
	<path class="st0" d="M119.4,67.4c-0.3,0-0.6,0-0.9-0.1c-0.3-0.1-0.6-0.3-0.9-0.5c-0.3-0.2-0.5-0.6-0.7-1c-0.2-0.4-0.3-1-0.3-1.7
		V53.6h0.6V64c0,0.6,0.1,1.1,0.2,1.5c0.1,0.4,0.3,0.6,0.5,0.8c0.2,0.2,0.4,0.3,0.7,0.4c0.2,0.1,0.5,0.1,0.7,0.1c0.2,0,0.4,0,0.7-0.1
		c0.2-0.1,0.5-0.2,0.7-0.4c0.2-0.2,0.4-0.5,0.5-0.8c0.1-0.4,0.2-0.8,0.2-1.5V53.6h0.6V64c0,0.7-0.1,1.3-0.3,1.7
		c-0.2,0.4-0.4,0.8-0.6,1c-0.3,0.2-0.6,0.4-0.9,0.5C120,67.3,119.7,67.4,119.4,67.4z"/>
	<path class="st0" d="M127.4,67.4H125V53.6h2.3c1.1,0,1.9,0.3,2.4,1c0.5,0.6,0.8,1.5,0.8,2.7v6.3c0,1.2-0.3,2.1-0.8,2.7
		C129.3,67.1,128.5,67.4,127.4,67.4z M125.7,66.7h1.7c0.9,0,1.5-0.2,1.9-0.7c0.4-0.5,0.6-1.3,0.6-2.3v-6.3c0-1.1-0.2-1.8-0.6-2.3
		c-0.4-0.5-1-0.7-1.9-0.7h-1.7V66.7z"/>
</g>
<g>
	<path class="st1" d="M73.4,32.1L71.8,28c-0.1-0.3-0.3-0.5-0.6-0.6c-0.3-0.1-0.6-0.1-0.8,0.1c-0.5,0.3-1.7,1-3.1,1
		c-1.4,0-2.5-0.2-2.5-3.2V12.2h6.1c0,0,0,0,0,0h0c0.5,0,1-0.4,1-1V6.7c0-0.5-0.4-1-1-1h0h-4.3h-1.8V1c0-0.6-0.4-1-1-1h-3.5
		c-0.4,0-0.8,0.3-0.9,0.7c-1.1,3-2.7,5.3-5.8,5.6c-0.5,0-0.8,0.4-0.9,0.9l0,3.9c0,0.3,0,0.6,0.2,0.8c0.2,0.2,0.5,0.3,0.8,0.3h2.8
		v13.4c0,1.9,0,4.4,1.2,6.3c1.4,2.4,4.1,3.5,8.1,3.5c2.7,0,5.6-0.8,7.4-2.1C73.5,33,73.6,32.6,73.4,32.1"/>
	<path class="st1" d="M26.2,28.8c0-0.4,0-0.8,0-1.1V7.9c0-0.4-0.2-0.8-0.6-0.9c-3.3-1.4-7.7-2.1-10.3-2.1c-9.3,0-14.9,5.7-14.9,15.2
		c0,6.5,3,13.5,11.5,13.5c2.3,0,4.4-0.6,6.1-1.8v0.7c0,4.9-1.5,7.2-5.2,7.2c-1.5,0-2.6-0.1-3.4-0.5c-0.5-0.2-0.6-0.3-0.6-1v-1.1
		c0-0.3-0.1-0.5-0.3-0.7c-0.2-0.2-0.5-0.3-0.8-0.3l-5.1,0c-0.5,0-0.9,0.5-0.9,1v6.4c0,0.4,0.2,0.7,0.6,0.9c2.5,1.2,7.2,1.9,10.5,1.9
		c8.4,0,12.9-4.3,13.4-12.8C26.2,32.1,26.2,30.4,26.2,28.8 M14.7,11.5c1.2,0,2.3,0.1,3.3,0.4v10.8c0,2.9-2.2,4.2-4.5,4.2
		c-3.2,0-4.6-2.2-4.6-7.5C8.9,16.5,9.7,11.5,14.7,11.5"/>
	<path class="st1" d="M51.6,30.9l-2-4.3c-0.1-0.3-0.4-0.5-0.6-0.5c-0.3-0.1-0.6,0-0.8,0.2c-1.3,0.9-3.4,2.2-6.2,2.2
		c-3.1,0-5-1.5-5.5-4.3c12.5-0.4,15.1-6,15.1-10.7c0-5.2-3.7-8.4-9.7-8.4c-9.8,0-14.2,8-14.2,15.9c0,9.4,4.8,14.6,13.6,14.6
		c5,0,8.8-2.1,10.1-3.2C51.7,31.8,51.8,31.3,51.6,30.9 M36.2,17.5c0.4-3,1.9-6,5.3-6c1.5,0,2.2,0.7,2.2,2
		C43.7,16.6,39.1,17.3,36.2,17.5"/>
	<path class="st1" d="M121.6,4.9c-3.1,0-5.7,1.1-7.5,2.6V6.7c0-0.6-0.4-1-1-1h-3.2h-1h-4.3h0h0c-0.5,0-1,0.4-1,1v4.5
		c0,0.5,0.4,1,1,1h0c0,0,0,0,0,0h2.1v0.6v0.6v25.4c0,0.1,0,0.2,0,0.3v0.2h-1.1l0,0h-1c0,0,0,0,0,0h0c-0.5,0-1,0.4-1,1v4.5
		c0,0.5,0.4,1,1,1h0h0.3h4.1h1h2.5h1.5h3.1h0h0c0.5,0,0.9-0.4,1-0.9c0,0,0,0,0,0v0c0,0,0-0.1,0-0.1v-4.5c0-0.5-0.4-1-1-1h0h0h-2.1
		v-4.7c1.5,0.6,3.2,0.9,4.7,0.9c8,0,12.7-6,12.7-15.9C132.3,7.4,126.4,4.9,121.6,4.9 M118.5,28.3c-1,0-2.5-0.3-3.7-0.9V15.7
		c0-2,2-3.6,4.4-3.6c1.1,0,4.4,0,4.4,7.9C123.6,22.5,123.1,28.3,118.5,28.3"/>
	<path class="st1" d="M104.6,29.1c0-0.5-0.4-1-1-1h-2.1v-2.7l0,0V6.7c0-0.6-0.4-1-1-1h-3.6h-1.2h-0.3h-0.7h-0.6h0h0
		c-0.5,0-1,0.4-1,1v4.5c0,0,0,0,0,0v1v0.6v0.8v5.7v4.8c0,2.1-1.5,4.3-4.7,4.3c-2.3,0-3-1.1-3-4.7v-17c0-0.6-0.4-1-1-1h-3.6h-1.5H75
		h0h0c-0.5,0-1,0.4-1,1v4.5c0,0,0,0,0,0l0,0.1c0,0,0,0.1,0,0.1l0,0c0,0.1,0,0.1,0,0.2c0,0,0,0,0,0c0,0,0,0.1,0.1,0.1c0,0,0,0,0,0.1
		c0,0,0,0.1,0.1,0.1c0,0,0,0,0.1,0.1c0,0,0,0,0.1,0c0,0,0.1,0,0.1,0.1c0,0,0,0,0,0c0,0,0.1,0,0.1,0.1c0,0,0,0,0,0c0,0,0.1,0,0.1,0
		c0,0,0.1,0,0.1,0c0,0,0,0,0.1,0h0c0,0,0,0,0,0h2.1v0.5v1.4V25c0,8.5,5.1,10.3,9.3,10.3c2.9,0,5.6-1,7.7-2.6v0.9c0,0.6,0.4,1,1,1
		h2.9h5.7c0.1,0,0.1,0,0.2,0c0,0,0.1,0,0.1,0c0,0,0.1,0,0.1,0c0,0,0.1,0,0.1,0c0,0,0.1,0,0.1,0c0,0,0,0,0.1-0.1c0,0,0.1,0,0.1-0.1
		c0,0,0,0,0-0.1c0,0,0.1-0.1,0.1-0.1c0,0,0,0,0,0c0,0,0-0.1,0.1-0.1c0,0,0,0,0,0c0-0.1,0-0.1,0.1-0.2c0,0,0,0,0,0c0,0,0-0.1,0-0.1
		v-0.1v0V29.1z"/>
</g>
</svg>
