<?xml version="1.0" encoding="utf-8"?>
<!-- Generator: Adobe Illustrator 19.1.0, SVG Export Plug-In . SVG Version: 6.00 Build 0)  -->
<svg version="1.1" id="Layer_1" xmlns="http://www.w3.org/2000/svg" xmlns:xlink="http://www.w3.org/1999/xlink" x="0px" y="0px"
	 viewBox="-305.4 363.6 132 46.3" style="enable-background:new -305.4 363.6 132 46.3;" xml:space="preserve">
<style type="text/css">
	.st0{fill:#E6332A;}
</style>
<g>
	<path class="st0" d="M-232.4,395.7l-1.6-4.1c-0.1-0.3-0.3-0.5-0.6-0.6s-0.6-0.1-0.8,0.1c-0.5,0.3-1.7,1-3.1,1
		c-1.4,0-2.5-0.2-2.5-3.2v-13.1h6.1l0,0l0,0c0.5,0,1-0.4,1-1v-4.5c0-0.5-0.4-1-1-1l0,0h-4.3h-1.8v-4.7c0-0.6-0.4-1-1-1h-3.5
		c-0.4,0-0.8,0.3-0.9,0.7c-1.1,3-2.7,5.3-5.8,5.6c-0.5,0-0.8,0.4-0.9,0.9v3.9c0,0.3,0,0.6,0.2,0.8c0.2,0.2,0.5,0.3,0.8,0.3h2.8v13.4
		c0,1.9,0,4.4,1.2,6.3c1.4,2.4,4.1,3.5,8.1,3.5c2.7,0,5.6-0.8,7.4-2.1C-232.2,396.6-232.2,396.2-232.4,395.7"/>
	<path class="st0" d="M-279.6,392.4c0-0.4,0-0.8,0-1.1v-19.8c0-0.4-0.2-0.8-0.6-0.9c-3.3-1.4-7.7-2.1-10.3-2.1
		c-9.3,0-14.9,5.7-14.9,15.2c0,6.5,3,13.5,11.5,13.5c2.3,0,4.4-0.6,6.1-1.8v0.7c0,4.9-1.5,7.2-5.2,7.2c-1.5,0-2.6-0.1-3.4-0.5
		c-0.5-0.2-0.6-0.3-0.6-1v-1.1c0-0.3-0.1-0.5-0.3-0.7c-0.2-0.2-0.5-0.3-0.8-0.3h-5.1c-0.5,0-0.9,0.5-0.9,1v6.4
		c0,0.4,0.2,0.7,0.6,0.9c2.5,1.2,7.2,1.9,10.5,1.9c8.4,0,12.9-4.3,13.4-12.8C-279.6,395.7-279.6,394-279.6,392.4 M-291.1,375.1
		c1.2,0,2.3,0.1,3.3,0.4v10.8c0,2.9-2.2,4.2-4.5,4.2c-3.2,0-4.6-2.2-4.6-7.5C-296.9,380.1-296.1,375.1-291.1,375.1"/>
	<path class="st0" d="M-254.2,394.5l-2-4.3c-0.1-0.3-0.4-0.5-0.6-0.5c-0.3-0.1-0.6,0-0.8,0.2c-1.3,0.9-3.4,2.2-6.2,2.2
		c-3.1,0-5-1.5-5.5-4.3c12.5-0.4,15.1-6,15.1-10.7c0-5.2-3.7-8.4-9.7-8.4c-9.8,0-14.2,8-14.2,15.9c0,9.4,4.8,14.6,13.6,14.6
		c5,0,8.8-2.1,10.1-3.2C-254.1,395.4-254,394.9-254.2,394.5 M-269.6,381.1c0.4-3,1.9-6,5.3-6c1.5,0,2.2,0.7,2.2,2
		C-262.1,380.2-266.6,380.9-269.6,381.1"/>
	<path class="st0" d="M-184.2,368.5c-3.1,0-5.7,1.1-7.5,2.6v-0.8c0-0.6-0.4-1-1-1h-3.2h-1h-4.3l0,0l0,0c-0.5,0-1,0.4-1,1v4.5
		c0,0.5,0.4,1,1,1l0,0l0,0h2.1v0.6v0.6v25.4c0,0.1,0,0.2,0,0.3v0.2h-1.1l0,0h-1l0,0l0,0c-0.5,0-1,0.4-1,1v4.5c0,0.5,0.4,1,1,1l0,0
		h0.3h4.1h1h2.5h1.5h3.1l0,0l0,0c0.5,0,0.9-0.4,1-0.9l0,0l0,0v-0.1v-4.5c0-0.5-0.4-1-1-1l0,0l0,0h-2.1v-4.7c1.5,0.6,3.2,0.9,4.7,0.9
		c8,0,12.7-6,12.7-15.9C-173.4,371-179.4,368.5-184.2,368.5 M-187.2,391.9c-1,0-2.5-0.3-3.7-0.9v-11.7c0-2,2-3.6,4.4-3.6
		c1.1,0,4.4,0,4.4,7.9C-182.2,386.1-182.7,391.9-187.2,391.9"/>
	<path class="st0" d="M-201.2,392.7c0-0.5-0.4-1-1-1h-2.1V389l0,0v-18.7c0-0.6-0.4-1-1-1h-3.6h-1.2h-0.3h-0.7h-0.6l0,0l0,0
		c-0.5,0-1,0.4-1,1v4.5l0,0v1v0.6v0.8v5.7v4.8c0,2.1-1.5,4.3-4.7,4.3c-2.3,0-3-1.1-3-4.7v-17c0-0.6-0.4-1-1-1h-3.6h-1.5h-4.3l0,0
		l0,0c-0.5,0-1,0.4-1,1v4.5l0,0v0.1v0.1l0,0c0,0.1,0,0.1,0,0.2l0,0c0,0,0,0.1,0.1,0.1c0,0,0,0,0,0.1c0,0,0,0.1,0.1,0.1
		c0,0,0,0,0.1,0.1c0,0,0,0,0.1,0c0,0,0.1,0,0.1,0.1l0,0c0,0,0.1,0,0.1,0.1l0,0h0.1h0.1c0,0,0,0,0.1,0l0,0l0,0h2.1v0.5v1.4v10.9
		c0,8.5,5.1,10.3,9.3,10.3c2.9,0,5.6-1,7.7-2.6v0.9c0,0.6,0.4,1,1,1h2.9h5.7c0.1,0,0.1,0,0.2,0h0.1h0.1h0.1h0.1c0,0,0,0,0.1-0.1
		c0,0,0.1,0,0.1-0.1c0,0,0,0,0-0.1l0.1-0.1l0,0c0,0,0-0.1,0.1-0.1l0,0c0-0.1,0-0.1,0.1-0.2l0,0v-0.1v-0.1l0,0L-201.2,392.7
		L-201.2,392.7z"/>
</g>
</svg>
