<?xml version="1.0" encoding="utf-8"?>
<!-- Generator: Adobe Illustrator 19.1.0, SVG Export Plug-In . SVG Version: 6.00 Build 0)  -->
<svg version="1.1"
	 id="svg2" xmlns:rdf="http://www.w3.org/1999/02/22-rdf-syntax-ns#" xmlns:cc="http://creativecommons.org/ns#" xmlns:svg="http://www.w3.org/2000/svg" xmlns:dc="http://purl.org/dc/elements/1.1/"
	 xmlns="http://www.w3.org/2000/svg" xmlns:xlink="http://www.w3.org/1999/xlink" x="0px" y="0px" viewBox="-0.3 280.7 608.6 226.2"
	 style="enable-background:new -0.3 280.7 608.6 226.2;" xml:space="preserve">
<style type="text/css">
	.st0{fill:none;stroke:#FFFFFF;stroke-width:118.5259;stroke-linejoin:round;}
	.st1{fill:#336EE5;}
	.st2{fill:none;stroke:#336EE5;stroke-width:74.7479;stroke-linejoin:round;}
	.st3{fill:none;stroke:#FFFFFF;stroke-width:30.7809;stroke-linejoin:round;}
	.st4{fill:#FFFFFF;}
	.st5{fill:none;stroke:#FFFFFF;stroke-width:0.4116;}
	.st6{fill:none;stroke:#FFFFFF;stroke-width:0.2744;}
	.st7{fill:none;stroke:#FFFFFF;stroke-width:0.2684;}
	.st8{fill:none;stroke:#FFFFFF;stroke-width:30.346;}
</style>
<g id="g12" transform="matrix(0,0.18092,-0.18275,0,0,0)">
	<path id="path14" class="st0" d="M1879.3-627.4l117.9-244.4l264.9-60.4l212.5,169.1v271.2l-212.4,169.1l-265-60.3L1879.3-627.4
		L1879.3-627.4z"/>
</g>
<path id="path16" class="st1" d="M114.6,340.1l44.7,21.3l11,47.9l-30.9,38.4H89.9L59,409.3l11-47.9L114.6,340.1L114.6,340.1z"/>
<g id="g18" transform="matrix(0,0.18092,-0.18275,0,0,0)">
	<path id="path20" class="st2" d="M1879.3-627.4l117.9-244.4l264.9-60.4l212.5,169.1v271.2l-212.4,169.1l-265-60.3L1879.3-627.4
		L1879.3-627.4z"/>
</g>
<g id="g22" transform="scale(0.18275,0.18275)">
	<path id="path24" class="st3" d="M589.3,2000.8c91.9-20.9,183.5,36.8,204.7,128.7c21.1,92-36.3,183.4-128.2,204.3
		c-91.9,20.9-183.5-36.8-204.7-128.7C440,2113.1,497.4,2021.6,589.3,2000.8z"/>
</g>
<path id="path26" class="st4" d="M111.8,360.4h3.4l0.2,25.2h-5.1L111.8,360.4L111.8,360.4z"/>
<g id="g28" transform="scale(0.17178,0.18275)">
	<path id="path30" class="st5" d="M650.7,1971.8h20l1.3,138.1l-29.6,0.3L650.7,1971.8L650.7,1971.8z"/>
</g>
<path id="path32" class="st4" d="M117.5,360.4h-3.4l-0.2,25.2h5.1L117.5,360.4L117.5,360.4z"/>
<g id="g34" transform="scale(0.17178,0.18275)">
	<path id="path36" class="st5" d="M684.3,1971.8h-20l-1.2,138.1l29.6,0.3L684.3,1971.8z"/>
</g>
<path id="path38" class="st4" d="M117.3,350.9c0,1.6-1.2,3-2.7,3s-2.7-1.3-2.7-3c0-1.6,1.2-3,2.7-3S117.3,349.2,117.3,350.9"/>
<g id="g40" transform="matrix(0.16447,2e-5,-2e-5,0.18275,0,0)">
	<path id="path42" class="st6" d="M713.9,1919.5c0,9-7.3,16.3-16.2,16.3c-9,0-16.2-7.3-16.3-16.2c0-9,7.3-16.3,16.2-16.3
		C706.6,1903.3,713.9,1910.5,713.9,1919.5L713.9,1919.5z"/>
</g>
<path id="path44" class="st4" d="M112,350.8c0,0.2,0,0.6,0,0.8c0,0.9,0.2,1.7,0.4,2.5c0.2,1.9,0.4,3.4,0.3,4.8
	c-0.1,0.7-0.5,1-0.9,1.3l4.2,2.8l-0.6-12.3L112,350.8L112,350.8z"/>
<g id="g46" transform="matrix(0,-0.17178,0.18275,0,0,0)">
	<path id="path48" class="st7" d="M-2042.2,612.9c-1.4,0-3.3-0.1-4.6,0c-5.5,0.2-9.7,1.3-14.8,2c-10.9,1.2-19.9,2.3-28.2,1.6
		c-4.2-0.6-5.8-2.9-7.8-4.8l-16.2,23.1l71.6-3.5V612.9L-2042.2,612.9z"/>
</g>
<path id="path50" class="st4" d="M117.3,350.8c0,0.2,0,0.6,0,0.8c0,0.9-0.2,1.7-0.4,2.5c-0.2,1.9-0.4,3.4-0.3,4.8
	c0.1,0.7,0.5,1,0.9,1.3l-4.2,2.8l0.6-12.3L117.3,350.8L117.3,350.8z"/>
<g id="g52" transform="matrix(0,-0.17178,0.18275,0,0,0)">
	<path id="path54" class="st7" d="M-2042.2,642.1c-1.4,0-3.3,0.1-4.6,0c-5.5-0.2-9.7-1.3-14.8-2c-10.9-1.2-19.9-2.3-28.2-1.6
		c-4.2,0.6-5.8,2.9-7.8,4.8l-16.2-23.1l71.6,3.5V642.1L-2042.2,642.1z"/>
</g>
<g id="g56" transform="scale(0.18275,0.18275)">
	<path id="path58" class="st8" d="M665.1,2197.2l-37.6,18l-37.6-18l-9.3-40.6l26-32.5h41.8l26,32.5L665.1,2197.2L665.1,2197.2z"/>
</g>
<path id="path60" class="st4" d="M84.9,376.1l2.1-2.7l19.9,15.6l-3.1,4L84.9,376.1L84.9,376.1z"/>
<g id="g62" transform="matrix(0.1071,0.1343,-0.14288,0.11394,0,0)">
	<path id="path64" class="st5" d="M2019.9,920l-4.4-18.3l143-31.9l6.9,27.1L2019.9,920L2019.9,920z"/>
</g>
<path id="path66" class="st4" d="M88.5,371.6l-2.1,2.7l19.6,15.9l3.2-3.9L88.5,371.6z"/>
<g id="g68" transform="matrix(0.1071,0.1343,-0.14288,0.11394,0,0)">
	<path id="path70" class="st5" d="M2012.4,889.2l4.5,18.3l143.5-29.6l-6.3-27.2L2012.4,889.2L2012.4,889.2z"/>
</g>
<path id="path72" class="st4" d="M80.9,365.8c1.3,1,1.6,2.8,0.7,3.9c-0.9,1.2-2.7,1.3-4,0.2c-1.3-1-1.6-2.8-0.7-3.9
	S79.6,364.8,80.9,365.8"/>
<g id="g74" transform="matrix(0.10253,0.1286,-0.14289,0.11392,0,0)">
	<path id="path76" class="st6" d="M2046,901.6c9.7-2,19.2,2.8,21.2,10.6c2,7.9-4.3,15.9-14,17.9s-19.2-2.8-21.2-10.6
		C2030,911.6,2036.2,903.6,2046,901.6L2046,901.6z"/>
</g>
<path id="path78" class="st4" d="M77.5,370c0.2,0.1,0.4,0.4,0.6,0.5c0.8,0.6,1.5,0.9,2.2,1.3c1.6,1,2.9,1.8,4,2.8
	c0.5,0.5,0.5,1,0.5,1.5l4.8-1.6l-10-7.2L77.5,370L77.5,370z"/>
<g id="g80" transform="matrix(0.1343,-0.1071,0.11394,0.14288,0,0)">
	<path id="path82" class="st7" d="M-989.5,1847.3c0.3,1.3,0.7,3.1,1,4.3c1.4,5,3.5,8.6,5.4,13.1c3.7,9.7,6.8,17.7,8,25.5
		c0.3,4-1.7,6-3.2,8.2l27.5,9.7l-19.5-64.8L-989.5,1847.3L-989.5,1847.3z"/>
</g>
<path id="path84" class="st4" d="M80.9,365.8c0.2,0.1,0.5,0.3,0.6,0.5c0.7,0.6,1.2,1.2,1.8,1.9c1.3,1.3,2.4,2.5,3.6,3.3
	c0.6,0.4,1.1,0.2,1.6,0.2l-0.4,5l-9.3-8.3L80.9,365.8L80.9,365.8z"/>
<g id="g86" transform="matrix(0.1343,-0.1071,0.11394,0.14288,0,0)">
	<path id="path88" class="st7" d="M-959.2,1840.8c0.3,1.3,0.8,3,1,4.3c1,5.1,0.8,9.2,1.2,14c1.1,10.2,2.1,18.7,4.6,26.2
		c1.5,3.7,4.3,4.7,6.7,6.1l-20.3,20l-12.3-66.3L-959.2,1840.8L-959.2,1840.8z"/>
</g>
<path id="path90" class="st4" d="M80.5,406.9l-0.8-3.3l24.6-5.8l1.2,4.9L80.5,406.9L80.5,406.9z"/>
<g id="g92" transform="matrix(0.03823,-0.16747,0.17816,0.04067,0,0)">
	<path id="path94" class="st5" d="M-2205.2,924.7l18-8.1l64.9,123.9l-26.5,12.3L-2205.2,924.7L-2205.2,924.7z"/>
</g>
<path id="path96" class="st4" d="M79.2,401.3l0.8,3.3l24.7-5.4l-1.1-5L79.2,401.3z"/>
<g id="g98" transform="matrix(0.03823,-0.16747,0.17816,0.04067,0,0)">
	<path id="path100" class="st5" d="M-2175,911l-18,8.2l62.6,124.9l26.8-11.8L-2175,911L-2175,911z"/>
</g>
<path id="path102" class="st4" d="M69.9,403.6c1.6-0.4,3.2,0.5,3.5,1.9s-0.7,2.9-2.3,3.3c-1.6,0.4-3.2-0.5-3.5-1.9
	C67.3,405.5,68.3,404,69.9,403.6"/>
<g id="g104" transform="matrix(0.03662,-0.16034,0.17816,0.04069,0,0)">
	<path id="path106" class="st6" d="M-2297.7,865c4.3,8.1,1.3,17.5-6.8,21s-18.1-0.2-22.5-8.3c-4.3-8.1-1.3-17.5,6.8-21
		S-2302.1,856.9-2297.7,865L-2297.7,865z"/>
</g>
<path id="path108" class="st4" d="M71.1,408.8c0.2-0.1,0.6-0.1,0.8-0.2c0.9-0.2,1.6-0.6,2.4-0.9c1.8-0.6,3.2-1.2,4.7-1.4
	c0.7-0.1,1.1,0.3,1.5,0.6l1.8-4.7l-11.8,3.4L71.1,408.8L71.1,408.8z"/>
<g id="g110" transform="matrix(0.16747,0.03823,-0.04067,0.17816,0,0)">
	<path id="path112" class="st7" d="M933.1,2094.5c1.2-0.6,3-1.3,4.2-1.9c4.9-2.4,8.2-5.2,12.4-7.8c9.2-5.5,16.8-10.1,24.7-13
		c4-1.2,6.6,0.2,9.2,1.1l4-27.4l-62.9,32.3L933.1,2094.5L933.1,2094.5z"/>
</g>
<path id="path114" class="st4" d="M69.9,403.6c0.2-0.1,0.6-0.1,0.8-0.2c0.9-0.2,1.7-0.1,2.6-0.2c1.9-0.2,3.4-0.4,4.8-0.8
	c0.7-0.3,0.9-0.7,1.1-1.1l3.7,3.5l-12.1,2.1L69.9,403.6z"/>
<g id="g116" transform="matrix(0.16747,0.03823,-0.04067,0.17816,0,0)">
	<path id="path118" class="st7" d="M919.6,2068.2c1.2-0.6,3-1.4,4.2-1.9c5.1-2.1,9.4-2.8,14.3-4.2c10.3-3.3,18.9-6.1,26.2-10
		c3.5-2.2,3.9-5,4.8-7.5l25.3,14.2l-66.1,26.1L919.6,2068.2z"/>
</g>
<path id="path120" class="st4" d="M101.7,429.6l-3.1-1.5l10.8-22.8l4.6,2.2L101.7,429.6z"/>
<g id="g122" transform="matrix(0.15477,-0.07453,0.07929,0.16465,0,0)">
	<path id="path124" class="st5" d="M-551.1,2359.7l-12.4-14.7l114.1-87l18.7,21.6L-551.1,2359.7z"/>
</g>
<path id="path126" class="st4" d="M96.6,427.1l3.1,1.5l11.1-22.6l-4.6-2.2L96.6,427.1z"/>
<g id="g128" transform="matrix(0.15477,-0.07453,0.07929,0.16465,0,0)">
	<path id="path130" class="st5" d="M-572.1,2335l12.5,14.7l115.6-85.2l-18.2-21.9L-572.1,2335L-572.1,2335z"/>
</g>
<path id="path132" class="st4" d="M92.6,435.8c0.7-1.5,2.4-2.2,3.7-1.5c1.3,0.6,1.8,2.4,1.1,3.8c-0.7,1.5-2.4,2.2-3.7,1.5
	C92.4,439,91.9,437.3,92.6,435.8"/>
<g id="g134" transform="matrix(0.14819,-0.07134,0.07926,0.16466,0,0)">
	<path id="path136" class="st6" d="M-641.8,2368.5c7.8-5.6,18.7-5,24.3,1.3s3.8,16-4,21.6s-18.7,5-24.2-1.3
		C-651.4,2383.7-649.6,2374.1-641.8,2368.5z"/>
</g>
<path id="path138" class="st4" d="M97.4,438.2c0.1-0.2,0.3-0.5,0.3-0.7c0.4-0.9,0.5-1.6,0.8-2.4c0.6-1.8,1.1-3.3,1.8-4.5
	c0.4-0.6,0.9-0.7,1.4-0.8l-2.6-4.3l-4.8,11.4L97.4,438.2L97.4,438.2z"/>
<g id="g140" transform="matrix(0.07453,0.15477,-0.16465,0.07929,0,0)">
	<path id="path142" class="st7" d="M2544.1,559.8c-0.9-1-2-2.5-2.9-3.4c-3.6-3.9-7.2-6.3-10.9-9.6c-7.8-7.2-14.3-13.2-19-19.7
		c-2.1-3.4-1.3-6.1-0.9-8.7l-29.3,2.4l47.5,50.4L2544.1,559.8L2544.1,559.8z"/>
</g>
<path id="path144" class="st4" d="M92.6,435.8c0.1-0.2,0.2-0.5,0.3-0.7c0.4-0.8,0.9-1.4,1.4-2.1c1-1.6,1.9-2.9,2.4-4.2
	c0.2-0.7,0-1.1-0.2-1.6l5-0.7l-5.9,10.8L92.6,435.8L92.6,435.8z"/>
<g id="g146" transform="matrix(0.07453,0.15477,-0.16465,0.07929,0,0)">
	<path id="path148" class="st7" d="M2519.8,578c-0.9-1-2.1-2.4-2.9-3.4c-3.3-4.2-5-8-7.6-12.1c-5.7-8.7-10.5-16-16.2-21.8
		c-3.1-2.7-6-2.5-8.8-2.7l9.1-26.3l41.7,54.8L2519.8,578L2519.8,578z"/>
</g>
<path id="path150" class="st4" d="M132.8,427.1l-3.1,1.5l-11.2-22.7l4.6-2.2L132.8,427.1L132.8,427.1z"/>
<g id="g152" transform="matrix(0.15477,0.07454,-0.0793,0.16465,0,0)">
	<path id="path154" class="st5" d="M1775,1790l-12.5,14.7l-115.7-85.2l18.2-21.9L1775,1790z"/>
</g>
<path id="path156" class="st4" d="M127.6,429.6l3.1-1.5l-10.8-22.8l-4.6,2.2L127.6,429.6z"/>
<g id="g158" transform="matrix(0.15477,0.07454,-0.0793,0.16465,0,0)">
	<path id="path160" class="st5" d="M1754.1,1814.6l12.4-14.7l-114.1-87l-18.7,21.6L1754.1,1814.6z"/>
</g>
<path id="path162" class="st4" d="M131.9,438.1c-0.7-1.5-0.2-3.2,1.1-3.8c1.3-0.6,3,0,3.7,1.5s0.2,3.2-1.1,3.8
	C134.3,440.2,132.6,439.6,131.9,438.1"/>
<g id="g164" transform="matrix(0.14817,0.07138,-0.07932,0.16464,0,0)">
	<path id="path166" class="st6" d="M1878.5,1846.2c-7.8-5.6-9.6-15.3-4-21.6c5.6-6.3,16.4-6.9,24.2-1.3c7.8,5.6,9.6,15.2,4,21.6
		C1897.1,1851.2,1886.3,1851.8,1878.5,1846.2L1878.5,1846.2z"/>
</g>
<path id="path168" class="st4" d="M136.7,435.8c-0.1-0.2-0.2-0.5-0.3-0.7c-0.4-0.8-0.9-1.4-1.4-2.1c-1-1.6-1.9-2.9-2.4-4.2
	c-0.2-0.7,0-1.1,0.2-1.6l-5-0.7l5.9,10.8L136.7,435.8L136.7,435.8z"/>
<g id="g170" transform="matrix(0.07454,-0.15477,0.16465,0.0793,0,0)">
	<path id="path172" class="st7" d="M-1939.8,1708.8c0.9-1,2.1-2.4,2.9-3.4c3.3-4.2,5-8,7.6-12.1c5.7-8.7,10.5-16,16.2-21.8
		c3.1-2.7,6-2.5,8.8-2.7l-9.1-26.3l-41.7,54.8L-1939.8,1708.8L-1939.8,1708.8z"/>
</g>
<path id="path174" class="st4" d="M131.9,438.1c-0.1-0.2-0.3-0.5-0.4-0.7c-0.4-0.9-0.5-1.6-0.8-2.5c-0.6-1.8-1.1-3.3-1.8-4.5
	c-0.4-0.6-0.9-0.7-1.4-0.8l2.6-4.3l4.8,11.4L131.9,438.1L131.9,438.1z"/>
<g id="g176" transform="matrix(0.07454,-0.15477,0.16465,0.0793,0,0)">
	<path id="path178" class="st7" d="M-1964.1,1690.6c0.9-1,2-2.5,2.9-3.4c3.6-3.9,7.2-6.3,10.9-9.6c7.8-7.2,14.3-13.2,18.9-19.7
		c2.1-3.4,1.3-6.1,0.9-8.7l29.3,2.4l-47.5,50.4L-1964.1,1690.6L-1964.1,1690.6z"/>
</g>
<path id="path180" class="st4" d="M150.1,401.2l-0.8,3.3l-24.7-5.4l1.1-5L150.1,401.2L150.1,401.2z"/>
<g id="g182" transform="matrix(0.03822,0.16747,-0.17816,0.04066,0,0)">
	<path id="path184" class="st5" d="M2471.8-312.5l18,8.2l-62.6,125l-26.8-11.8L2471.8-312.5z"/>
</g>
<path id="path186" class="st4" d="M148.8,406.9l0.8-3.3l-24.6-5.8l-1.2,4.9L148.8,406.9L148.8,406.9z"/>
<g id="g188" transform="matrix(0.03822,0.16747,-0.17816,0.04066,0,0)">
	<path id="path190" class="st5" d="M2502.1-298.8l-18-8.1L2419.2-183l26.5,12.3L2502.1-298.8z"/>
</g>
<path id="path192" class="st4" d="M158.2,408.8c-1.6-0.4-2.6-1.8-2.3-3.3c0.3-1.4,1.9-2.3,3.5-1.9c1.6,0.4,2.6,1.8,2.3,3.3
	C161.3,408.3,159.8,409.1,158.2,408.8"/>
<g id="g194" transform="matrix(0.03657,0.16035,-0.17817,0.04063,0,0)">
	<path id="path196" class="st6" d="M2637.1-346.6c-4.3,8.1-14.4,11.8-22.5,8.3s-11.1-12.9-6.8-21s14.4-11.8,22.5-8.3
		S2641.4-354.7,2637.1-346.6L2637.1-346.6z"/>
</g>
<path id="path198" class="st4" d="M159.4,403.6c-0.2-0.1-0.6-0.1-0.8-0.2c-0.9-0.2-1.7-0.1-2.6-0.2c-1.9-0.2-3.4-0.4-4.8-0.8
	c-0.7-0.3-0.9-0.7-1.1-1.1l-3.7,3.5l12.1,2.1L159.4,403.6z"/>
<g id="g200" transform="matrix(0.16748,-0.03822,0.04066,0.17817,0,0)">
	<path id="path202" class="st7" d="M382.3,2346.7c-1.2-0.6-3-1.4-4.2-1.9c-5-2.1-9.4-2.8-14.3-4.2c-10.4-3.3-18.9-6.1-26.2-10
		c-3.5-2.2-3.9-5-4.8-7.5l-25.3,14.2l66.1,26.1L382.3,2346.7L382.3,2346.7z"/>
</g>
<path id="path204" class="st4" d="M158.2,408.8c-0.2-0.1-0.6-0.1-0.8-0.2c-0.9-0.2-1.6-0.6-2.4-0.9c-1.8-0.6-3.2-1.2-4.7-1.4
	c-0.7-0.1-1.1,0.3-1.5,0.6l-1.8-4.7l11.8,3.4L158.2,408.8L158.2,408.8z"/>
<g id="g206" transform="matrix(0.16748,-0.03822,0.04066,0.17817,0,0)">
	<path id="path208" class="st7" d="M368.8,2373.1c-1.2-0.6-3-1.3-4.2-1.9c-4.9-2.4-8.1-5.2-12.4-7.8c-9.2-5.5-16.8-10.1-24.7-13
		c-4-1.2-6.6,0.2-9.2,1.1l-4-27.4l62.9,32.3C377.2,2356.4,368.8,2373.1,368.8,2373.1z"/>
</g>
<path id="path210" class="st4" d="M140.8,371.5l2.1,2.7l-19.6,15.9l-3.2-3.9L140.8,371.5L140.8,371.5z"/>
<g id="g212" transform="matrix(0.10711,-0.1343,0.14287,0.11395,0,0)">
	<path id="path214" class="st5" d="M-1179.5,1869.9l-4.5,18.3l-143.5-29.6l6.3-27.2L-1179.5,1869.9z"/>
</g>
<path id="path216" class="st4" d="M144.4,376.1l-2.1-2.7L122.4,389l3.1,4L144.4,376.1z"/>
<g id="g218" transform="matrix(0.10711,-0.1343,0.14287,0.11395,0,0)">
	<path id="path220" class="st5" d="M-1187,1900.7l4.4-18.3l-143-31.9l-6.8,27.1L-1187,1900.7z"/>
</g>
<path id="path222" class="st4" d="M151.7,369.9c-1.3,1-3.1,0.9-4-0.2c-0.9-1.2-0.6-2.9,0.7-3.9c1.3-1,3.1-0.9,4,0.2
	C153.3,367.2,153,368.9,151.7,369.9"/>
<g id="g224" transform="matrix(0.10257,-0.12857,0.14286,0.11397,0,0)">
	<path id="path226" class="st6" d="M-1182.6,1911.3c-9.7-2-16-10-14-17.9s11.5-12.6,21.2-10.7c9.7,2,16,10,14,17.9
		C-1163.4,1908.6-1172.9,1913.3-1182.6,1911.3L-1182.6,1911.3z"/>
</g>
<path id="path228" class="st4" d="M148.4,365.7c-0.2,0.1-0.5,0.3-0.6,0.5c-0.7,0.6-1.2,1.2-1.8,1.9c-1.3,1.3-2.4,2.5-3.6,3.3
	c-0.6,0.4-1.1,0.2-1.6,0.2l0.4,5l9.3-8.2L148.4,365.7z"/>
<g id="g230" transform="matrix(0.1343,0.10711,-0.11395,0.14287,0,0)">
	<path id="path232" class="st7" d="M2002.9,1058.2c-0.3,1.3-0.8,3-1.1,4.3c-1,5.1-0.8,9.2-1.2,14c-1.1,10.2-2.1,18.7-4.6,26.2
		c-1.5,3.7-4.3,4.7-6.7,6.1l20.3,20l12.3-66.4L2002.9,1058.2L2002.9,1058.2z"/>
</g>
<path id="path234" class="st4" d="M151.7,369.9c-0.2,0.1-0.4,0.4-0.6,0.5c-0.8,0.6-1.5,0.9-2.2,1.3c-1.6,1-2.9,1.8-4,2.8
	c-0.5,0.5-0.5,1-0.5,1.5l-4.8-1.6l10-7.2L151.7,369.9z"/>
<g id="g236" transform="matrix(0.1343,0.10711,-0.11395,0.14287,0,0)">
	<path id="path238" class="st7" d="M2033.3,1064.7c-0.3,1.3-0.7,3.1-1,4.3c-1.4,5-3.5,8.6-5.4,13.1c-3.7,9.7-6.8,17.7-8,25.5
		c-0.3,4,1.7,6,3.2,8.2l-27.5,9.8l19.5-64.8L2033.3,1064.7L2033.3,1064.7z"/>
</g>
<path id="path240" class="st4" d="M110.5,382.7c-0.1,1.3-1.1,2.3-2.4,2.3c-0.5,0-1-0.2-1.4-0.5l-0.6,0.3l1.3,2.6l5.5-2.6l-1.2-2.6
	L110.5,382.7z"/>
<path id="path242" class="st4" d="M101.5,391c0.9,0.8,1.1,2.3,0.3,3.2c-0.3,0.4-0.8,0.7-1.2,0.8l-0.2,0.7l2.8,0.6l1.4-5.9l-2.8-0.6
	L101.5,391L101.5,391z"/>
<path id="path244" class="st4" d="M102.4,403.2c1.2-0.2,2.4,0.6,2.7,1.8c0.1,0.5,0.1,1-0.1,1.5l0.4,0.5l2.2-1.8l-3.8-4.8l-2.2,1.8
	L102.4,403.2L102.4,403.2z"/>
<path id="path246" class="st4" d="M112.6,410.1c0.6-1.1,2-1.6,3.1-1c0.5,0.2,0.8,0.6,1.1,1h0.7v-2.9h-6.1v2.9H112.6L112.6,410.1z"/>
<path id="path248" class="st4" d="M124.2,406.4c-0.5-1.2,0-2.5,1.1-3.1c0.5-0.2,1-0.3,1.4-0.2l0.4-0.5l-2.2-1.8l-3.8,4.8l2.4,1.8
	L124.2,406.4L124.2,406.4z"/>
<path id="path250" class="st4" d="M128.7,395c-1.2-0.3-2-1.6-1.7-2.8c0.1-0.5,0.4-0.9,0.7-1.3l-0.1-0.7l-2.8,0.6l1.4,5.9l2.8-0.6
	L128.7,395L128.7,395z"/>
<path id="path252" class="st4" d="M122.6,384.4c-1,0.7-2.4,0.6-3.2-0.4c-0.3-0.4-0.5-0.9-0.5-1.4l-0.6-0.3l-1.2,2.6l5.5,2.6l1.2-2.6
	L122.6,384.4z"/>
<path id="path254" class="st4" d="M228.4,401c1-1.1,1.9-2.3,2.9-3.6c1-1.3,1.9-2.5,2.9-3.9c0.9-1.3,1.8-2.6,2.7-3.9s1.6-2.4,2.2-3.6
	h11.8c-1,1.2-2.1,2.6-3.3,4s-2.5,2.9-3.8,4.4s-2.6,2.9-3.9,4.3c-1.3,1.4-2.5,2.7-3.6,3.8c1.3,1.3,2.8,2.8,4.3,4.6
	c1.5,1.8,3.1,3.6,4.6,5.6c1.5,1.9,2.9,3.8,4.1,5.8c1.3,1.9,2.3,3.6,3,5.1H241c-0.6-1.3-1.5-2.8-2.5-4.5s-2.1-3.3-3.3-5
	c-1.2-1.6-2.4-3.2-3.6-4.6c-1.2-1.5-2.3-2.7-3.3-3.6v17.7h-9.9v-53.8l9.9-1.7V401H228.4z"/>
<path id="path256" class="st4" d="M288.4,422.4c-1.8,0.5-4,1-6.6,1.4c-2.6,0.5-5.4,0.7-8.4,0.7c-3.1,0-5.6-0.4-7.6-1.3
	s-3.5-2.1-4.7-3.6c-1.1-1.6-1.9-3.4-2.4-5.6c-0.4-2.1-0.6-4.5-0.6-7v-20.9h9.8v19.7c0,3.5,0.4,6,1.2,7.7c0.8,1.7,2.4,2.5,4.8,2.5
	c1.5,0,3-0.1,4.5-0.4v-29.5h9.9L288.4,422.4L288.4,422.4z"/>
<path id="path258" class="st4" d="M320.9,404.6c0-3.5-0.6-6.2-1.7-8.1c-1.1-1.9-2.9-2.8-5.2-2.8c-1.1,0-2.1,0.1-3.2,0.4
	c-1,0.3-1.9,0.7-2.7,1.1v20.4c0.7,0.2,1.5,0.3,2.4,0.3c0.8,0.1,1.5,0.1,2.1,0.1c2.6,0,4.6-0.9,6.1-2.6S320.9,408.8,320.9,404.6
	L320.9,404.6z M330.9,404.9c0,3-0.4,5.7-1.2,8.1c-0.8,2.4-2,4.5-3.5,6.2s-3.4,3-5.7,4c-2.2,0.9-4.8,1.4-7.7,1.4
	c-2.6,0-5.2-0.2-7.8-0.6c-2.7-0.4-4.9-0.9-6.7-1.4v-52.7l9.8-1.7V387c1.4-0.6,2.7-1.1,4-1.3c1.3-0.2,2.6-0.4,3.8-0.4
	c2.5,0,4.6,0.5,6.5,1.4s3.4,2.3,4.7,4c1.3,1.7,2.2,3.8,2.8,6.2C330.6,399.3,330.9,401.9,330.9,404.9"/>
<path id="path260" class="st4" d="M335.7,405.2c0-3.3,0.5-6.2,1.5-8.7s2.3-4.6,4-6.3c1.7-1.7,3.5-2.9,5.7-3.8
	c2.1-0.9,4.3-1.3,6.6-1.3c5.5,0,9.7,1.6,12.6,4.9s4.3,8.1,4.3,14.3c0,0.6,0,1.3,0,2s-0.1,1.3-0.1,1.7h-24.4c0,2.5,1,4.4,3,5.8
	s4.6,2.1,7.8,2.1c2,0,3.8-0.2,5.6-0.6c1.8-0.4,3.3-0.9,4.5-1.3l1.4,8.4c-1.7,0.6-3.5,1.1-5.4,1.5s-4.1,0.6-6.5,0.6
	c-3.2,0-6.1-0.4-8.6-1.2c-2.5-0.8-4.7-2.1-6.5-3.7s-3.2-3.6-4.1-6S335.7,408.4,335.7,405.2L335.7,405.2z M360.9,401.3
	c0-1-0.1-2-0.4-2.9s-0.7-1.8-1.3-2.5c-0.6-0.7-1.3-1.3-2.2-1.8c-0.9-0.5-2-0.7-3.4-0.7c-1.3,0-2.4,0.2-3.3,0.6s-1.7,1-2.3,1.8
	c-0.6,0.7-1.1,1.6-1.4,2.6s-0.6,1.9-0.7,3h15V401.3z"/>
<path id="path262" class="st4" d="M408.1,396.1c-0.6-0.2-1.4-0.3-2.3-0.5s-1.8-0.3-2.7-0.4c-0.9-0.1-1.8-0.2-2.6-0.3
	c-0.9-0.1-1.6-0.1-2.2-0.1c-1.4,0-2.7,0.1-4.1,0.2c-1.3,0.1-2.7,0.4-4.1,0.8v27.9h-9.9v-35.1c2.6-1,5.3-1.7,8-2.3
	c2.7-0.6,6-0.9,9.6-0.9c0.5,0,1.3,0,2.3,0.1s2,0.1,3.2,0.3c1.1,0.1,2.3,0.3,3.4,0.5s2.2,0.4,3.1,0.8L408.1,396.1L408.1,396.1z"/>
<path id="path264" class="st4" d="M418.2,387.3c1.8-0.5,3.9-0.9,6.5-1.4c2.6-0.4,5.4-0.6,8.4-0.6s5.5,0.4,7.4,1.2
	c2,0.8,3.5,2,4.7,3.5c1.1,1.5,2,3.3,2.4,5.4c0.5,2.1,0.7,4.4,0.7,7v21.2h-9.8v-19.9c0-3.5-0.4-6-1.2-7.6c-0.8-1.5-2.4-2.3-4.9-2.3
	c-0.7,0-1.5,0-2.2,0.1s-1.5,0.1-2.3,0.2v29.5h-9.8L418.2,387.3L418.2,387.3z"/>
<path id="path266" class="st4" d="M455.6,405.2c0-3.3,0.5-6.2,1.5-8.7s2.3-4.6,4-6.3c1.7-1.7,3.5-2.9,5.7-3.8
	c2.1-0.9,4.3-1.3,6.6-1.3c5.5,0,9.7,1.6,12.6,4.9s4.3,8.1,4.3,14.3c0,0.6,0,1.3,0,2s-0.1,1.3-0.1,1.7h-24.4c0,2.5,1,4.4,3,5.8
	s4.6,2.1,7.8,2.1c2,0,3.8-0.2,5.6-0.6c1.8-0.4,3.3-0.9,4.5-1.3l1.4,8.4c-1.7,0.6-3.5,1.1-5.4,1.5s-4.1,0.6-6.5,0.6
	c-3.2,0-6.1-0.4-8.6-1.2c-2.5-0.8-4.7-2.1-6.5-3.7s-3.2-3.6-4.1-6S455.6,408.4,455.6,405.2L455.6,405.2z M480.8,401.3
	c0-1-0.1-2-0.4-2.9s-0.7-1.8-1.3-2.5c-0.6-0.7-1.3-1.3-2.2-1.8c-0.9-0.5-2-0.7-3.4-0.7c-1.3,0-2.4,0.2-3.3,0.6s-1.7,1-2.3,1.8
	c-0.6,0.7-1.1,1.6-1.4,2.6s-0.6,1.9-0.7,3h15V401.3z"/>
<path id="path268" class="st4" d="M504.5,394.2H496v-8.1h8.5v-9.4l9.8-1.6v11H530v8.1h-15.7v15.2c0,1.4,0.1,2.5,0.4,3.4
	s0.6,1.5,1.1,2s1.1,0.8,1.8,1s1.5,0.2,2.3,0.2c0.9,0,1.7,0,2.5-0.1s1.5-0.1,2.2-0.3c0.7-0.1,1.5-0.3,2.2-0.6c0.8-0.3,1.6-0.6,2.5-1
	l1.4,8.5c-1.8,0.7-3.8,1.3-5.9,1.6c-2.1,0.3-4.1,0.5-6.1,0.5c-2.3,0-4.3-0.2-6.1-0.6c-1.8-0.4-3.2-1.1-4.5-2.2
	c-1.2-1.1-2.2-2.6-2.8-4.5c-0.6-1.9-1-4.5-1-7.6L504.5,394.2L504.5,394.2z"/>
<path id="path270" class="st4" d="M535.5,405.2c0-3.3,0.5-6.2,1.5-8.7s2.3-4.6,4-6.3c1.7-1.7,3.5-2.9,5.7-3.8
	c2.1-0.9,4.3-1.3,6.6-1.3c5.5,0,9.7,1.6,12.6,4.9c2.9,3.3,4.3,8.1,4.3,14.3c0,0.6,0,1.3,0,2s-0.1,1.3-0.1,1.7h-24.4
	c0,2.5,1,4.4,3,5.8s4.6,2.1,7.8,2.1c2,0,3.8-0.2,5.6-0.6s3.3-0.9,4.5-1.3l1.4,8.4c-1.7,0.6-3.5,1.1-5.4,1.5
	c-1.9,0.4-4.1,0.6-6.5,0.6c-3.2,0-6.1-0.4-8.6-1.2c-2.5-0.8-4.7-2.1-6.5-3.7s-3.2-3.6-4.1-6C536,411.2,535.5,408.4,535.5,405.2
	L535.5,405.2z M560.7,401.3c0-1-0.1-2-0.4-2.9s-0.7-1.8-1.3-2.5s-1.3-1.3-2.2-1.8c-0.9-0.5-2-0.7-3.4-0.7c-1.3,0-2.4,0.2-3.3,0.6
	c-0.9,0.4-1.7,1-2.3,1.8c-0.6,0.7-1.1,1.6-1.4,2.6s-0.6,1.9-0.7,3h15V401.3z"/>
<path id="path272" class="st4" d="M591.2,416.2c2.4,0,4.2-0.2,5.5-0.5s1.9-1.1,1.9-2.1c0-0.7-0.2-1.3-0.6-1.8
	c-0.4-0.5-1-0.9-1.7-1.2c-0.7-0.3-1.5-0.7-2.5-1c-0.9-0.3-1.9-0.6-2.9-1c-1.4-0.4-2.9-0.9-4.4-1.5s-2.8-1.3-4.1-2.1
	c-1.2-0.9-2.2-1.9-3-3.2c-0.8-1.3-1.2-2.9-1.2-4.9c0-1.6,0.3-3.1,0.9-4.5c0.6-1.4,1.6-2.7,2.9-3.8c1.3-1.1,3-1.9,5-2.6
	c2-0.6,4.4-0.9,7.3-0.9c2.5,0,4.7,0.2,6.8,0.6s3.9,0.9,5.5,1.6l-1.5,8.3c-0.9-0.3-2.3-0.7-4.2-1.3s-4.1-0.9-6.5-0.9
	c-2.5,0-4.2,0.3-5.1,0.9c-0.9,0.6-1.3,1.3-1.3,2c0,0.6,0.2,1.1,0.6,1.6c0.4,0.5,0.9,0.9,1.6,1.2c0.7,0.4,1.4,0.7,2.3,1.1
	c0.9,0.3,1.8,0.7,2.8,1c1.4,0.5,2.9,1,4.5,1.6c1.5,0.6,2.9,1.3,4.2,2.2c1.3,0.9,2.3,2,3.1,3.4s1.2,3,1.2,5c0,1.5-0.3,3-0.9,4.4
	c-0.6,1.4-1.6,2.6-2.9,3.6c-1.4,1-3.1,1.8-5.3,2.4s-4.9,0.9-8.1,0.9c-3.2,0-6-0.4-8.3-1.1s-4.1-1.4-5.5-2l1.5-8.2
	c1.9,0.7,3.8,1.4,6,2.1C586.9,415.9,589,416.2,591.2,416.2"/>
<path id="path274" class="st4" d="M478.5,453.6h-1v-8.8h1.1v3.1c0.5-0.6,1-0.9,1.7-0.9c0.4,0,0.8,0.1,1.1,0.2
	c0.3,0.2,0.6,0.4,0.9,0.7c0.2,0.3,0.4,0.6,0.5,1s0.2,0.8,0.2,1.3c0,1.1-0.3,1.9-0.8,2.5s-1.2,0.9-1.9,0.9c-0.8,0-1.3-0.3-1.8-0.9
	L478.5,453.6L478.5,453.6z M478.5,450.3c0,0.8,0.1,1.3,0.3,1.7c0.3,0.6,0.8,0.8,1.4,0.8c0.5,0,0.9-0.2,1.2-0.6
	c0.3-0.4,0.5-1,0.5-1.8s-0.2-1.4-0.5-1.8s-0.7-0.6-1.2-0.6s-0.9,0.2-1.2,0.6C478.6,449,478.5,449.6,478.5,450.3"/>
<path id="path276" class="st4" d="M484.3,456l-0.1-1c0.2,0.1,0.4,0.1,0.6,0.1s0.4,0,0.6-0.1c0.1-0.1,0.3-0.2,0.4-0.3
	c0.1-0.1,0.2-0.4,0.3-0.8c0-0.1,0.1-0.1,0.1-0.3l-2.4-6.4h1.2l1.3,3.7c0.2,0.5,0.3,1,0.5,1.5c0.1-0.5,0.3-1,0.4-1.4l1.4-3.7h1.1
	l-2.4,6.5c-0.3,0.7-0.5,1.2-0.6,1.4c-0.2,0.4-0.4,0.6-0.7,0.8c-0.2,0.2-0.5,0.2-0.9,0.2C484.7,456.2,484.5,456.1,484.3,456"/>
<path id="path278" class="st4" d="M594.5,437.5h0.6l0,0c0.1,0.2,0.2,0.5,0.3,0.7c0.1,0.3,0.2,0.5,0.3,0.8l0,0
	c0.1-0.2,0.2-0.5,0.3-0.7s0.2-0.4,0.2-0.5s0-0.1,0-0.1c0-0.1-0.1-0.1-0.1-0.1h-0.2l0.2-0.2h0.9l-0.1,0.1c-0.1,0.1-0.1,0.1-0.1,0.2
	v0.1c0,0.2,0,0.3,0,0.5s0,0.4,0.1,0.7c0,0.2,0.1,0.2,0.2,0.3c-0.1,0-0.2,0-0.4,0c-0.1,0-0.2,0-0.3-0.1s-0.1-0.2-0.1-0.5
	c0-0.2,0-0.3,0-0.5s0-0.3,0-0.5l0,0l0,0c-0.1,0.2-0.2,0.4-0.3,0.6c-0.2,0.5-0.2,0.5-0.3,0.7v0.1c-0.1,0-0.4,0.1-0.5,0.2
	c-0.1-0.2-0.4-1-0.6-1.6c0,0.2,0,0.5-0.1,0.7c0,0.1-0.1,0.6-0.1,0.6c0,0.1,0,0.1,0.1,0.1h0.2l-0.1,0.1h-0.5l0.1-0.1c0,0,0,0,0-0.1
	c0,0,0-0.1,0-0.2c0-0.2,0-0.3,0.1-0.5c0-0.1,0.1-0.6,0.1-0.7L594.5,437.5c-0.1-0.1-0.1-0.1-0.2-0.1c0,0-0.2,0-0.3,0L594.5,437.5
	L594.5,437.5z"/>
<path id="path280" class="st4" d="M594.4,437.5l-0.1,0.3l-0.1,0.1v-0.1c0-0.1-0.1-0.1-0.1-0.1h-0.4c0,1.1,0,1.1,0,1.3
	c0,0.1,0,0.1,0,0.2s0,0.1,0.2,0.1h0.2l-0.2,0.1H593l0.1-0.1c0.1-0.1,0.1-0.1,0.1-0.2s0-0.3,0-0.4s0-0.2,0-0.3c0-0.2,0-0.5,0-0.7
	v-0.1h-0.3c-0.2,0-0.2,0-0.3,0.1l-0.1,0.1l0.1-0.3H594.4L594.4,437.5z"/>
<path id="path282" class="st4" d="M587.6,442.6c0.7-0.2,1-0.5,1-0.9c0-1.4-1.6-3-3.4-3c-1.4,0-4,1.1-4,4.8c0,0.6,0.1,1.2,0.1,1.8
	L587.6,442.6L587.6,442.6z M590.9,452.9c-0.4,0.2-0.8,0.5-1.1,0.6c-1.1,0.5-2.3,0.7-3.4,0.7c-1.1,0-2.8-0.1-4.6-1.4
	c-2.5-1.7-3.5-4.7-3.5-7.3c0-5.4,4.4-8,7.9-8c1.2,0,2.5,0.3,3.6,1c1.7,1.1,2.2,2.6,2.4,3.4l-8.1,3.3l-2.7,0.2c0.9,4.4,3.8,7,7.1,7
	c1.8,0,3.1-0.6,4.2-1.2L590.9,452.9L590.9,452.9z"/>
<path id="path284" class="st4" d="M577.4,453.7h-6.1c0.8-1,0.9-1.1,0.9-1.8v-5.6c0-2.7,0-6.5,0.1-10.2c0-1.8,0.2-4,0.2-5.6h-2.7
	l2.6-1.2h5c-1.1,0.6-1.4,0.8-1.6,2c-0.3,2.7-0.3,6.9-0.3,11.8v8c0,1.4,0.2,1.6,1.4,1.7c0.6,0.1,1.2,0.1,1.8,0.2L577.4,453.7
	L577.4,453.7z"/>
<path id="path286" class="st4" d="M564.6,448c0.8-0.8,0.9-1.9,0.9-2.5c0-2.5-1.5-6.4-4.4-6.4c-0.9,0-1.9,0.5-2.4,1.1
	c-0.6,0.7-0.8,1.7-0.8,2.6c0,2.3,1.4,6.2,4.3,6.2C563.1,449,564,448.6,564.6,448z M563.6,454.6c-0.3,0-0.5,0-0.8,0s-2.2,0.1-3.6,0.6
	c-0.8,0.3-3,1.1-3,3.6s2.4,4.2,6.1,4.2c3.3,0,5.1-1.6,5.1-3.7C567.4,457.4,566.2,456.5,563.6,454.6L563.6,454.6z M566,439.2
	c0.8,0.7,2.5,2,2.5,4.7c0,2.6-1.5,3.8-2.9,4.9c-0.4,0.4-1,0.9-1,1.7c0,0.8,0.5,1.2,0.9,1.5l1.2,1c1.5,1.3,2.9,2.5,2.9,4.9
	c0,3.3-3.2,6.6-9.1,6.6c-5,0-7.5-2.4-7.5-5c0-1.2,0.6-3,2.7-4.2c2.1-1.3,5.1-1.5,6.6-1.6c-0.5-0.6-1-1.3-1-2.4
	c0-0.6,0.2-0.9,0.3-1.4c-0.4,0-0.8,0.1-1.1,0.1c-3.7,0-5.8-2.7-5.8-5.4c0-1.6,0.7-3.4,2.2-4.6c2-1.6,4.3-1.9,6.2-1.9h7.1l-2.2,1.2
	L566,439.2L566,439.2z"/>
<path id="path288" class="st4" d="M548.9,451.3c0.8-1.1,1-2.5,1-3.8c0-3.1-1.5-8.9-5.8-8.9c-1.1,0-2.3,0.5-3.1,1.2
	c-1.4,1.2-1.6,2.7-1.6,4.2c0,3.4,1.7,9.1,5.9,9.1C546.7,453.1,548.1,452.4,548.9,451.3z M544.6,454.1c-5.5,0-8.5-4.3-8.5-8.2
	c0-4.5,3.7-8.4,9-8.4c5.1,0,8.3,4,8.3,8.2C553.4,449.8,550.2,454.1,544.6,454.1"/>
<path id="path290" class="st4" d="M530.5,451.3c0.8-1.1,1-2.5,1-3.8c0-3.1-1.5-8.9-5.8-8.9c-1.1,0-2.3,0.5-3.1,1.2
	c-1.4,1.2-1.6,2.7-1.6,4.2c0,3.4,1.7,9.1,5.9,9.1C528.3,453.1,529.7,452.4,530.5,451.3z M526.1,454.1c-5.5,0-8.5-4.3-8.5-8.2
	c0-4.5,3.7-8.4,9-8.4c5.1,0,8.3,4,8.3,8.2C534.9,449.8,531.8,454.1,526.1,454.1"/>
<path id="path292" class="st4" d="M515.5,452.9l-4.6,1.1c-1.9,0.3-3.6,0.6-5.4,0.6c-9,0-12.4-6.6-12.4-11.8
	c0-6.3,4.8-12.2,13.1-12.2c1.8,0,3.4,0.3,5,0.7c2.4,0.7,3.6,1.5,4.3,2l-2.7,2.6l-1.1,0.3l0.8-1.3c-1.1-1.1-3.1-3.1-7-3.1
	c-5.1,0-9,3.9-9,9.6c0,6.1,4.4,11.9,11.5,11.9c2.1,0,3.2-0.4,4.1-0.8v-5.2l-4.9,0.3l2.6-1.4h6.9l-0.8,0.8c-0.2,0.2-0.3,0.3-0.3,0.5
	c0,0.3-0.1,1.2-0.1,1.6V452.9L515.5,452.9z"/>
</svg>
